<?xml version="1.0" encoding="utf-8"?>
<!-- Generator: Adobe Illustrator 22.0.0, SVG Export Plug-In . SVG Version: 6.00 Build 0)  -->
<svg version="1.1" id="Layer_1" xmlns="http://www.w3.org/2000/svg" xmlns:xlink="http://www.w3.org/1999/xlink" x="0px" y="0px"
	 viewBox="0 0 83.1 33.2" style="enable-background:new 0 0 83.1 33.2;" xml:space="preserve">
<style type="text/css">
	.st0{fill:#555555;}
</style>
<path class="st0" d="M16.9,11.3l0.1,0.1l0-0.1H16.9z M16.9,11.3l0.1,0.1l0-0.1H16.9z M16.9,11.3l0.1,0.1l0-0.1H16.9z M16.9,11.3
	l0.1,0.1l0-0.1H16.9z M16.9,11.3l0.1,0.1l0-0.1H16.9z M82.6,20.6c-0.1-0.2-0.2-0.4-0.4-0.6v-2.1c0-2.2-1.5-4.2-3.7-4.7l-7.4-1.9
	L60.5,8.6l-0.8-0.2L48.1,1.2c-1.2-0.8-2.6-1.2-4-1.2H13c-1.2,0-2.5,0.3-3.5,0.9L9.2,1c-1.1,0.6-2,1.4-2.7,2.3L3,8.3
	C2.9,8.4,2.7,8.5,2.6,8.6C2.2,8.9,2,9.4,1.8,9.8l-0.5,1.5L0.4,14C0.1,14.7,0,15.5,0,16.2v4.2c0,1.8,0.7,3.5,1.9,4.9L5.2,29
	c0.5,0.6,1.2,0.9,2,0.9h2.6c0.4,0,0.8-0.1,1.2-0.3c1.5,2.1,3.9,3.5,6.6,3.5c2.8,0,5.2-1.4,6.6-3.5c0.4,0.2,0.8,0.3,1.2,0.3h31
	c0.3,0,0.7-0.1,1-0.2c1.5,2.1,3.9,3.5,6.7,3.5c2.8,0,5.3-1.4,6.7-3.6c0.4,0.2,0.8,0.3,1.2,0.3h4.8c2.5,0,4.7-1.6,5.4-3.9l0.7-2.3
	c0.1-0.4,0.2-0.8,0.2-1.2C83.1,21.9,82.9,21.2,82.6,20.6z M44.1,2.4v0.3c0.9,0,1.8,0.3,2.6,0.8l8.1,5.1H38.3l-1-6.2H44.1z M34.5,2.4
	l1,6.2h-17l3.4-6.2l-0.1,0H34.5z M8.7,4.6c0.5-0.6,1-1.2,1.7-1.5L10.6,3c0.7-0.4,1.5-0.6,2.3-0.6h5.9l-3.5,6.2H5.8L8.7,4.6z
	 M17.6,30.4c-2.9,0-5.3-2.3-5.4-5.2v0c0-0.5,0.1-1,0.2-1.5c0.7-2.3,2.8-4,5.2-4c0.1,0,0.1,0,0.2,0c2.7,0.1,4.9,2.1,5.2,4.8
	c0,0.2,0,0.3,0,0.5v0c0,0.1,0,0.3,0,0.4v0c0,0.1,0,0.2,0,0.3v0c0,0.2,0,0.4-0.1,0.5C22.3,28.7,20.2,30.4,17.6,30.4z M64.1,30.5
	c-2.3,0-4.2-1.4-5-3.4c0-0.2,0-0.4-0.1-0.6c-0.3-1-0.2-1.9,0-2.8c0.6-2,2.3-3.6,4.3-3.9c0.1,0,0.3,0,0.4,0c0.1,0,0.2,0,0.3,0h0.1
	c3,0.1,5.3,2.4,5.3,5.4C69.5,28.1,67.1,30.5,64.1,30.5z M80.3,22.8L79.5,25c-0.4,1.2-1.6,2.1-2.9,2.1H72c0.1-0.6,0.2-1.3,0.2-2
	c0-2.8-1.4-5.2-3.5-6.7c-0.1-0.1-0.3-0.2-0.4-0.3C68.2,18.1,68.1,18,68,18c-0.1-0.1-0.2-0.1-0.3-0.2c-1-0.5-2.1-0.8-3.3-0.9H64
	c-3.6,0-6.7,2.5-7.7,5.9c-0.3,1.1-0.4,2.1-0.3,3c0,0.4,0.1,0.8,0.2,1.2H25.5c0.2-0.6,0.3-1.3,0.3-2c0-2.2-0.9-4.3-2.4-5.7
	c-0.2-0.2-0.3-0.3-0.5-0.5c-0.1-0.1-0.2-0.2-0.3-0.3c-0.1-0.1-0.2-0.2-0.3-0.2c0,0-0.1,0-0.1-0.1c-0.1,0-0.2-0.1-0.2-0.1
	c-0.1-0.1-0.3-0.2-0.4-0.3c0,0,0,0,0,0c-1.1-0.6-2.3-1-3.5-1h-0.3c-3.6,0-6.7,2.5-7.7,5.9c-0.3,1-0.4,2.1-0.3,3
	c0,0.4,0.1,0.8,0.2,1.2H7.2l-3.3-3.7c-0.8-0.8-1.2-1.9-1.2-3.1v-4.2c0-0.5,0.1-0.9,0.2-1.4L4,11.3h12.9l0.1,0.1l0-0.1h42.8l18,4.5
	c1,0.2,1.7,1.1,1.7,2.1v3.4C80.2,21.5,80.5,22.1,80.3,22.8z M16.9,11.3l0.1,0.1l0-0.1H16.9z M16.9,11.3l0.1,0.1l0-0.1H16.9z
	 M16.9,11.3l0.1,0.1l0-0.1H16.9z M16.9,11.3l0.1,0.1l0-0.1H16.9z"/>
</svg>
