<?xml version="1.0" encoding="utf-8"?>
<!-- Generator: Adobe Illustrator 22.0.0, SVG Export Plug-In . SVG Version: 6.00 Build 0)  -->
<svg version="1.1" id="Layer_1" xmlns="http://www.w3.org/2000/svg" xmlns:xlink="http://www.w3.org/1999/xlink" x="0px" y="0px"
	 viewBox="0 0 84 41.3" style="enable-background:new 0 0 84 41.3;" xml:space="preserve">
<style type="text/css">
	.st0{fill:#555555;}
</style>
<path class="st0" d="M83.9,29.1c-0.4-1.7-1.6-3.1-3.4-4.1c-0.4-0.6-0.7-2.7-0.5-4.3l0.1-1.6l-1.3-0.9c-0.2-0.2-5.6-3.7-15.4-5.4
	C60.8,9.8,51.9,0,38.1,0c-6.4,0-13,2.6-19.6,7.7c-2.3,1.8-4.3,3.6-5.7,5.1h-0.3v0.3c-1.4,1.4-2.2,2.5-2.4,2.7L10,16
	c-2.1,1.9-4.7,4.9-6.8,9.3c-1.8,0.6-3.3,2.2-3.3,4.8c0,4.4,2.9,5.3,5.2,6l0.3,0.1l0.5,0.1h5c1.6,2.8,4.6,4.8,8,4.8s6.5-2,8-4.8h0.7
	l16.5,0.1h11.9c1.6,2.9,4.7,4.9,8.2,4.9s6.6-2,8.2-4.9h3l0.4-0.1c5.8-1.6,6.8-2.8,7.2-3.2c0.7-0.8,1-1.9,1-2.9
	C84.1,29.8,84,29.5,83.9,29.1z M59.6,12.8H36.7l0.4-10.1c0.3,0,0.7,0,1,0C48.8,2.7,56.3,9.1,59.6,12.8z M34.4,3L34,12.8H16.9
	C20.9,9,27.2,4.3,34.4,3z M18.9,38.4c-2.4,0-4.6-1.4-5.7-3.4l-0.3-1.9c-0.1-0.4-0.1-0.8-0.1-1.1c0-3.4,2.7-6.1,6.1-6.1
	S25,28.6,25,32c0,0.4,0,0.7-0.1,1.1L24.6,35C23.5,37,21.4,38.4,18.9,38.4z M64.2,38.4c-2.4,0-4.5-1.3-5.6-3.3l-0.4-2
	c-0.1-0.4-0.1-0.8-0.1-1.2c0-3.4,2.7-6.1,6.1-6.1c3.4,0,6.1,2.7,6.1,6.1c0,0.4,0,0.8-0.1,1.2l-0.4,2C68.8,37.1,66.7,38.4,64.2,38.4z
	 M80.7,31.5c-0.8,1-5.7,2.3-5.7,2.3h-1.7c0.1-0.6,0.2-1.2,0.2-1.8c0-5.1-4.2-9.3-9.3-9.3c-5.1,0-9.3,4.2-9.3,9.3
	c0,0.6,0.1,1.2,0.2,1.8h-11l-16.3-0.1C28,33.1,28,32.6,28,32c0-5-4.1-9.1-9.1-9.1S9.8,27,9.8,32c0,0.6,0,1.1,0.2,1.7H6.2
	c-2.5-0.8-3.6-1-3.6-3.5s2.5-2.5,2.5-2.5c2.1-4.9,5-8.1,7.2-10h-0.1c0.1-0.2,0.8-1,1.9-2.2h48c9.8,1.5,15,5.1,15,5.1
	s-0.4,5.7,1.9,6.9C81.3,28.6,81.5,30.6,80.7,31.5z"/>
</svg>
