<?xml version="1.0" encoding="utf-8"?>
<!-- Generator: Adobe Illustrator 22.0.0, SVG Export Plug-In . SVG Version: 6.00 Build 0)  -->
<svg version="1.1" id="Layer_1" xmlns="http://www.w3.org/2000/svg" xmlns:xlink="http://www.w3.org/1999/xlink" x="0px" y="0px"
	 viewBox="0 0 85.3 43" style="enable-background:new 0 0 85.3 43;" xml:space="preserve">
<style type="text/css">
	.st0{fill:#555555;}
</style>
<path class="st0" d="M81,21.2L79,18c-1.1-1.7-2.8-2.9-4.8-3.2l-15.4-2.3l-0.4-0.1L50.5,2.1C49.4,0.8,47.8,0,46.1,0H12.8
	c-2.6,0-4.9,1.4-6.1,3.7l-4.5,8.7c-0.5,1-0.8,2-0.8,3.1v7.7c-0.8,1.2-1.3,2.7-1.3,4.2V30c0,0.7,0.3,1.4,0.8,1.9L5.4,36
	c0.5,0.4,1.1,0.7,1.7,0.7h2.5c0.1,0,0.3,0,0.4,0c1.2,3.7,4.7,6.3,8.8,6.3s7.5-2.7,8.8-6.3c0.1,0,0.1,0,0.2,0h29c0.1,0,0.3,0,0.4,0
	c1.2,3.7,4.7,6.3,8.8,6.3c4.1,0,7.6-2.7,8.8-6.3c0.1,0,0.1,0,0.2,0h1.2c0.5,0,0.9-0.1,1.3-0.4l4.4-2.7c2-1.2,3.3-3.5,3.3-5.8v-0.3
	C85.2,24.7,83.5,22.2,81,21.2z M34.6,2.6h11.5c0.9,0,1.8,0.4,2.4,1.1l6.9,8.7H34.6V2.6z M19.5,2.6H32v9.8H16.8L19.5,2.6z M9.1,4.9
	c0.7-1.4,2.2-2.3,3.8-2.3h3.8l-2.7,9.8H5.3L9.1,4.9z M25.4,35c-0.6,3.1-3.3,5.4-6.6,5.4c-3.4,0-6.2-2.6-6.6-5.9c0-0.2,0-0.4,0-0.5
	v-0.3c0-3.6,2.9-6.5,6.5-6.5c3.6,0,6.5,2.9,6.5,6.5V34C25.2,34.3,25.3,34.7,25.4,35C25.4,35,25.4,35,25.4,35z M72.6,35
	c-0.6,3.1-3.3,5.4-6.6,5.4c-3.4,0-6.2-2.6-6.6-5.9c0-0.2,0-0.4,0-0.5v-0.3c0-3.6,2.9-6.5,6.5-6.5c3.6,0,6.5,2.9,6.5,6.5V34
	C72.4,34.3,72.5,34.7,72.6,35C72.6,35,72.6,35,72.6,35z M82.9,27.7c0,1.5-0.8,2.9-2,3.6L76.5,34h-1.2c0-0.1,0-0.2,0-0.3
	c0-5.1-4.2-9.3-9.3-9.3s-9.3,4.2-9.3,9.3c0,0.1,0,0.2,0,0.3H28.1c0-0.1,0-0.2,0-0.3c0-5.1-4.2-9.3-9.3-9.3c-5.1,0-9.3,4.2-9.3,9.3
	c0,0.1,0,0.2,0,0.3H7.2l-4.5-4v-2.6c0-1.2,0.5-2.3,1.4-3.1v-8.7c0-0.2,0-0.4,0.1-0.6h54.5L74,17.2c1.2,0.2,2.3,0.9,3,2l1.7,2.8
	c0,0,0.1,0.3,0.3,0.6c0.2,0.3,0.4,0.6,0.7,0.8c0,0,0,0,0,0c1.9,0.5,3.2,2.2,3.2,4.1V27.7z"/>
</svg>
