<?xml version="1.0" encoding="utf-8"?>
<!-- Generator: Adobe Illustrator 22.0.0, SVG Export Plug-In . SVG Version: 6.00 Build 0)  -->
<svg version="1.1" id="Layer_1" xmlns="http://www.w3.org/2000/svg" xmlns:xlink="http://www.w3.org/1999/xlink" x="0px" y="0px"
	 viewBox="0 0 83 39" style="enable-background:new 0 0 83 39;" xml:space="preserve">
<style type="text/css">
	.st0{fill:none;stroke:#555555;stroke-width:3;stroke-miterlimit:10;}
	.st1{fill:#555555;}
</style>
<path class="st0" d="M-66.4-2"/>
<path class="st1" d="M76.9,11.4H40.8V4C40.8,1.8,39,0,36.9,0H25.7c-2.3,0-4.4,0.9-6,2.5l-8.9,8.9H6.1c-3.4,0-6.1,2.7-6.1,6.1v9.7
	c0,3.4,2.7,6.1,6.1,6.1H9c1.4,3.3,4.7,5.7,8.5,5.7c3.8,0,7.1-2.3,8.5-5.7h32c1.4,3.3,4.7,5.7,8.5,5.7c3.8,0,7.1-2.3,8.5-5.7h1.8
	c3.4,0,6.1-2.7,6.1-6.1v-9.7C83,14.1,80.3,11.4,76.9,11.4z M21.8,4.6c1-1,2.4-1.6,3.8-1.6h11.2c0.5,0,0.9,0.4,0.9,0.9v7.4H15.1
	L21.8,4.6z M17.5,36c-2.1,0-4-1.1-5.1-2.7c-0.6-0.9-1-1.9-1.1-3c0-0.2,0-0.4,0-0.6c0-3.4,2.8-6.2,6.2-6.2s6.2,2.8,6.2,6.2
	c0,0.2,0,0.4,0,0.6c-0.1,1.1-0.5,2.1-1.1,3C21.5,34.9,19.7,36,17.5,36z M66.6,36c-2.1,0-4-1.1-5.1-2.7c-0.6-0.9-1-1.9-1.1-3
	c0-0.2,0-0.4,0-0.6c0-3.4,2.8-6.2,6.2-6.2s6.2,2.8,6.2,6.2c0,0.2,0,0.4,0,0.6c-0.1,1.1-0.5,2.1-1.1,3C70.6,34.9,68.7,36,66.6,36z
	 M80,27.2c0,1.7-1.4,3.1-3.1,3.1h-1.1c0-0.2,0-0.4,0-0.6c0-5.1-4.1-9.2-9.2-9.2c-5.1,0-9.2,4.1-9.2,9.2c0,0.2,0,0.4,0,0.6H26.8
	c0-0.2,0-0.4,0-0.6c0-5.1-4.1-9.2-9.2-9.2c-5.1,0-9.2,4.1-9.2,9.2c0,0.2,0,0.4,0,0.6H6.1c-1.7,0-3.1-1.4-3.1-3.1v-9.7
	c0-1.7,1.4-3.1,3.1-3.1h70.8c1.7,0,3.1,1.4,3.1,3.1V27.2z"/>
</svg>
