<?xml version="1.0" encoding="utf-8"?>
<!-- Generator: Adobe Illustrator 22.0.0, SVG Export Plug-In . SVG Version: 6.00 Build 0)  -->
<svg version="1.1" id="Layer_1" xmlns="http://www.w3.org/2000/svg" xmlns:xlink="http://www.w3.org/1999/xlink" x="0px" y="0px"
	 viewBox="0 0 80 43.1" style="enable-background:new 0 0 80 43.1;" xml:space="preserve">
<style type="text/css">
	.st0{fill:#555555;}
</style>
<path class="st0" d="M56.3,21.5c0,0.8-0.7,1.4-1.4,1.4h-5.4c-0.8,0-1.4-0.6-1.4-1.4c0-0.8,0.6-1.4,1.4-1.4h5.4
	C55.7,20.2,56.3,20.7,56.3,21.5z"/>
<path class="st0" d="M79.1,25.6l-0.7-1c-0.5-1.3-2-4.8-5-6.4h-0.2L66.4,15l-5.8-8.7C60.1,5.6,56.8,0.6,50.1,0H12.6
	c-5.2,0-9.7,3.4-11,8.4v0.2L1.4,8.9v16.3c-1.1,1-1.6,2.5-1.6,4c0.1,2,0.7,5.7,3.6,8.1l0.8,0.6h4.6c1.2,3,4.2,5.1,7.6,5.1
	c3.4,0,6.4-2.1,7.6-5.1h31.3c1.2,3,4.2,5.1,7.6,5.1c3.5,0,6.5-2.2,7.7-5.3l0.6,0.1l0.6,0.1h0.4c1.3,0,2.5-0.5,3.4-1.3l2.8-2.5
	c1-1,1.7-2.3,1.7-3.8v-1.7C80.1,27.5,79.9,26.5,79.1,25.6z M49.9,2.8c5.6,0.5,8.4,5,8.4,5l5,7.5H49.1L45.8,2.8H49.9z M16.4,40.3
	c-2.5,0-4.7-1.8-5.3-4.2l-0.1-0.9c0-0.1,0-0.3,0.1-0.4c0.1-0.6,0.2-0.9,0.2-1.2c0-1.9,2.8-4.2,5.1-4.2c2,0,3.9,1.5,5,3.1
	c0.3,0.7,0.5,1.5,0.5,2.3C21.9,37.8,19.4,40.3,16.4,40.3z M62.9,40.3c-2.8,0-5.2-2.2-5.5-4.9v-0.1c0-0.2,0-0.3,0-0.5
	c0-0.4,0.1-0.7,0.1-1.1c0,0,0,0,0,0c0.6-2,3.1-4.3,5.6-4.3h0.1c0.4,0,0.8,0,1.2,0.1c2.3,0.7,4,2.8,4,5.3
	C68.4,37.8,65.9,40.3,62.9,40.3z M77.1,30.3c0,0.7-0.3,1.3-0.8,1.7l-2.8,2.5c-0.4,0.4-1,0.6-1.6,0.6L71.4,35v-0.5
	c0-3.4-2.8-7.5-7.7-7.9c-0.1,0-0.3,0-0.4,0c-0.1,0-0.3,0-0.4,0h-0.1c-0.1,0-0.2,0-0.3,0c-0.1,0-0.2,0-0.3,0c-0.1,0-0.1,0-0.2,0
	c-2.1,0.2-3.9,1.3-5.3,2.8c-1.5,1.5-2.5,3.4-2.5,5.2v0.5H24.8v-0.5c0-0.8-0.2-1.6-0.5-2.4c0,0,0,0,0,0c-1.1-3.1-4.1-5.4-7.5-5.5
	c-0.1,0-0.3,0-0.4,0l-0.6,0l-0.2,0c-0.1,0-0.3,0-0.4,0.1c-0.1,0-0.1,0-0.2,0c0,0,0,0-0.1,0c-0.2,0-0.4,0.1-0.6,0.2
	c-1.1,0.3-2.1,0.8-2.9,1.5c0,0,0,0,0,0c-0.1,0.1-0.2,0.1-0.3,0.2c-1.5,1.3-2.6,3-2.6,4.8c0,0.1,0,0.3-0.1,0.5c0,0,0,0,0,0.1
	c-0.1,0.4-0.2,1-0.1,1.2h-3c-2-1.7-2.5-4.5-2.6-6.1c0-0.7,0.2-1.4,0.8-1.9c0.5-0.5,0.8-1.2,0.8-1.8V9.1c1-3.7,4.4-6.3,8.3-6.3h30.5
	L47,18.1h19.5l5.4,2.6c2.6,1.4,3.8,5.2,3.8,5.2l0.9,1.3c0.3,0.4,0.4,0.9,0.4,1.4V30.3z"/>
</svg>
