<?xml version="1.0" encoding="utf-8"?>
<!-- Generator: Adobe Illustrator 22.0.0, SVG Export Plug-In . SVG Version: 6.00 Build 0)  -->
<svg version="1.1" id="Layer_1" xmlns="http://www.w3.org/2000/svg" xmlns:xlink="http://www.w3.org/1999/xlink" x="0px" y="0px"
	 viewBox="0 192.2 595.3 457.6" style="enable-background:new 0 192.2 595.3 457.6;" xml:space="preserve">
<style type="text/css">
	.st0{fill:#0B4B8A;}
	.st1{fill:#0B4B8A;stroke:#0B4B8A;stroke-width:8;stroke-miterlimit:10;}
</style>
<g>
	<g>
		<path class="st0" d="M545.6,327.4H485v-85.5c0-27.4-22.3-49.7-49.7-49.7H49.7C22.3,192.2,0,214.4,0,241.9v223
			c0,27.4,22.3,49.7,49.7,49.7h60.6V600c0,27.4,22.3,49.7,49.7,49.7h385.6c27.4,0,49.7-22.3,49.7-49.7v-223
			C595.3,349.6,573,327.4,545.6,327.4z M28.4,241.9c0-11.7,9.6-21.3,21.3-21.3h385.6c11.7,0,21.3,9.6,21.3,21.3v19.8H28.4V241.9z
			 M110.3,377.1v109.1H49.7c-11.7,0-21.3-9.6-21.3-21.3v-109H115C112,362.3,110.3,369.5,110.3,377.1z M28.4,327.4v-37.4h428.2v37.3
			H160c-1,0-1.9,0-2.9,0.1H28.4z M545.6,621.3H160c-11.7,0-21.3-9.6-21.3-21.3v-223c0-11.2,8.6-20.3,19.6-21.2h312.6
			c0.5,0,1,0,1.5-0.1h73.2c11.7,0,21.3,9.6,21.3,21.3v223h0C566.9,611.8,557.3,621.3,545.6,621.3z"/>
	</g>
</g>
<path class="st1" d="M493.1,485.7c0,36.8-29.9,66.7-66.7,66.7c-20,0-38.5-8.9-51.3-24.2l0,0l-0.2-0.3c-0.2-0.2-0.4-0.4-0.6-0.6
	l0.1,0l-60.6-74.7c-9.5-10.7-23.1-16.8-37.4-16.8c-27.6,0-50,22.4-50,50s22.4,50,50,50c15.3,0,29.5-6.8,39.1-18.8l0.2,0.1l13.6-16.9
	l13,10.5l-13.7,17l-0.2-0.1c-12.7,15.8-31.6,24.9-51.9,24.9c-36.8,0-66.7-29.9-66.7-66.7s29.9-66.7,66.7-66.7
	c18.7,0,36.5,8,49.1,21.7l0.1-0.1l0.7,0.9l61.7,76c9.6,11.6,23.5,18.2,38.5,18.2c27.6,0,50-22.4,50-50c0-27.6-22.4-50-50-50
	c-14.1,0-27.5,6-37,16.5l-15.8,19.6l-13-10.5l15.8-19.6l-0.1-0.1c12.7-14.4,30.9-22.6,50.1-22.6C463.1,419,493.1,448.9,493.1,485.7z
	"/>
</svg>
