<?xml version="1.0" encoding="utf-8"?>
<!-- Generator: Adobe Illustrator 22.0.0, SVG Export Plug-In . SVG Version: 6.00 Build 0)  -->
<svg version="1.1" id="Layer_1" xmlns="http://www.w3.org/2000/svg" xmlns:xlink="http://www.w3.org/1999/xlink" x="0px" y="0px"
	 viewBox="0 186.4 595.3 469.1" style="enable-background:new 0 186.4 595.3 469.1;" xml:space="preserve">
<style type="text/css">
	.st0{fill:#FFE823;}
</style>
<g>
	<g>
		<path class="st0" d="M84.2,236.1c-19,0-34.4,15.5-34.4,34.4c0,19,15.5,34.4,34.4,34.4s34.4-15.5,34.4-34.4
			C118.7,251.6,103.2,236.1,84.2,236.1z M84.2,280.3c-5.3,0-9.7-4.3-9.7-9.7c0-5.3,4.3-9.7,9.7-9.7c5.3,0,9.7,4.3,9.7,9.7
			C93.9,275.9,89.5,280.3,84.2,280.3z"/>
	</g>
</g>
<g>
	<g>
		<path class="st0" d="M571.8,341.4V254c0-16.9-13.8-30.7-30.7-30.7L153.7,223c-3-4.4-6.5-8.6-10.4-12.4
			c-16.2-15.9-37.6-24.6-60.3-24.2C37.5,187,0.3,224.6,0,270.1c-0.1,13.5,3.1,26.9,9.2,38.9c0.1,0.2,20.1,33.8,20.1,33.8v281.8
			c0,16.9,13.8,30.7,30.7,30.7l480.9,0.3c17,0,30.8-13.8,30.8-30.7V462c0,0,14.1-23.7,14.3-23.9c6-11.8,9.2-25,9.2-38.3
			C595.3,377.8,586.9,357.2,571.8,341.4z M487.1,248l-59.8,59.8l-59.9-59.9L487.1,248z M411.5,323.6L307.3,427.8l-38.1-38.1
			c0,0,0,0,0,0s0,0,0,0l-28.6-28.6l104.2-104.2L411.5,323.6z M203.9,470.7l57.3-57.3l73.7,73.7l-57.3,57.3L203.9,470.7z
			 M217.9,516.2l-64.3,64.3L102,529l64.3-64.3L217.9,516.2z M159.2,308.9c6-11.8,9.2-25,9.2-38.3c0-7.8-1.1-15.5-3.1-22.8l156.9,0.1
			l-97.4,97.4l-34.9-34.9c-4.4-4.4-11.4-4.4-15.8,0c-4.4,4.4-4.4,11.4,0,15.8l71.4,71.4l-57.3,57.3l-46.4-46.4
			c-4.4-4.4-11.4-4.4-15.8,0c-4.4,4.4-4.4,11.4,0,15.8l24.6,24.6l-96.4,96.4v-161l8.8,14.7c4.5,7.6,12.5,12.1,21.3,12.1
			s16.8-4.5,21.3-12.1C105.5,399,159.1,309.2,159.2,308.9z M31.1,297.3c-4.3-8.4-6.4-17.5-6.3-27.1c0.2-32.1,26.5-58.6,58.6-59.1
			c16.1-0.2,31.2,5.9,42.6,17.1c3.9,3.9,7.2,8.2,9.9,12.9c0.1,0.2,0.2,0.4,0.4,0.6c4.8,8.7,7.4,18.6,7.4,28.8
			c0,9.4-2.1,18.4-6.3,26.7l-53.1,89L31.1,297.3z M60.1,630.5c-3.3,0-6-2.7-6-6v-47.7l32.1-32.1l85.8,85.8L60.1,630.5z M203.6,630.6
			l-34.3-34.3l64.3-64.3l98.7,98.7L203.6,630.6z M293.4,560.1l57.3-57.3l41.6,41.6L335,601.8L293.4,560.1z M363.9,630.6l-13.1-13.1
			l57.3-57.3l70.5,70.5L363.9,630.6z M541.1,630.7l-30.9,0l-86.3-86.3l26-26c4.4-4.4,4.4-11.4,0-15.8c-4.4-4.4-11.4-4.4-15.8,0
			l-26,26l-49.5-49.5c0,0,0,0,0,0c0,0,0,0,0,0L323,443.6l42.3-42.3l21.9,21.9c2.4,2.4,5.6,3.6,8.8,3.6c3.2,0,6.3-1.2,8.8-3.6
			c4.8-4.8,4.8-12.7,0-17.5l-21.9-21.9L518.6,248l22.4,0c3.3,0,6,2.7,6,6v69.6c-11.4-5.4-24.1-8.2-37.2-8
			c-45.5,0.6-82.8,38.2-83,83.7c-0.1,13.5,3.1,26.9,9.2,38.9c0.1,0.2,53.7,90.1,53.7,90.1c4.5,7.6,12.5,12.1,21.3,12.1
			c8.8,0,16.8-4.5,21.3-12.1l14.7-24.6v121.2h0C547,628.1,544.3,630.7,541.1,630.7z M564.2,426.4l-15.6,26.2c0,0,0,0,0,0l-37.4,62.8
			l-53.1-89c-4.3-8.4-6.4-17.5-6.3-27.1c0.2-32.1,26.5-58.6,58.6-59.1c16-0.2,31.2,5.9,42.6,17.1c11.4,11.3,17.7,26.3,17.7,42.3
			C570.5,409.1,568.4,418.1,564.2,426.4z"/>
	</g>
</g>
<g>
	<g>
		<path class="st0" d="M511.1,365.3c-19,0-34.4,15.5-34.4,34.4c0,19,15.5,34.4,34.4,34.4c19,0,34.4-15.5,34.4-34.4
			C545.5,380.7,530.1,365.3,511.1,365.3z M511.1,409.4c-5.3,0-9.7-4.3-9.7-9.7c0-5.3,4.3-9.7,9.7-9.7c5.3,0,9.7,4.3,9.7,9.7
			S516.4,409.4,511.1,409.4z"/>
	</g>
</g>
</svg>
