<?xml version="1.0" encoding="utf-8"?>
<!-- Generator: Adobe Illustrator 22.0.0, SVG Export Plug-In . SVG Version: 6.00 Build 0)  -->
<svg version="1.1" id="Layer_1" xmlns="http://www.w3.org/2000/svg" xmlns:xlink="http://www.w3.org/1999/xlink" x="0px" y="0px"
	 viewBox="0 145.5 595.3 550.8" style="enable-background:new 0 145.5 595.3 550.8;" xml:space="preserve">
<style type="text/css">
	.st0{fill:#333333;}
</style>
<g>
	<g>
		<path class="st0" d="M249.6,591.7c-28.9,0-52.4,23.5-52.4,52.4c0,28.9,23.5,52.4,52.4,52.4S302,672.9,302,644
			C302,615.1,278.5,591.7,249.6,591.7z M249.6,667.1c-12.7,0-23.1-10.4-23.1-23.1c0-12.7,10.4-23.1,23.1-23.1
			c12.7,0,23.1,10.4,23.1,23.1C272.7,656.8,262.4,667.1,249.6,667.1z"/>
	</g>
</g>
<g>
	<g>
		<path class="st0" d="M433.2,591.7c-28.9,0-52.4,23.5-52.4,52.4c0,28.9,23.5,52.4,52.4,52.4c28.9,0,52.4-23.5,52.4-52.4
			C485.6,615.1,462.1,591.7,433.2,591.7z M433.2,667.1c-12.7,0-23.1-10.4-23.1-23.1c0-12.7,10.4-23.1,23.1-23.1
			c12.7,0,23.1,10.4,23.1,23.1C456.4,656.8,446,667.1,433.2,667.1z"/>
	</g>
</g>
<g>
	<g>
		<path class="st0" d="M446.1,316H236.7c-8.1,0-14.6,6.5-14.6,14.6c0,8.1,6.5,14.6,14.6,14.6h209.5c8.1,0,14.6-6.5,14.6-14.6
			C460.7,322.6,454.2,316,446.1,316z"/>
	</g>
</g>
<g>
	<g>
		<path class="st0" d="M434.7,391.9H248.1c-8.1,0-14.6,6.5-14.6,14.6s6.5,14.6,14.6,14.6h186.6c8.1,0,14.6-6.5,14.6-14.6
			C449.3,398.5,442.8,391.9,434.7,391.9z"/>
	</g>
</g>
<g>
	<g>
		<path class="st0" d="M588.7,250.9c-5.6-6.8-13.8-10.8-22.7-10.8H110.8l-9.2-44.6c-1.9-9.3-8.3-17.1-17-20.9l-64.2-27.8
			c-7.4-3.2-16,0.2-19.2,7.6c-3.2,7.4,0.2,16,7.6,19.2L73,201.4l70.7,343.3c2.8,13.5,14.8,23.3,28.6,23.3h350.2
			c8.1,0,14.6-6.5,14.6-14.6s-6.5-14.6-14.6-14.6H172.3l-8.6-41.8h361.5c13.8,0,25.8-9.8,28.6-23.3l40.9-198.4
			C596.5,266.6,594.3,257.7,588.7,250.9z M525.2,467.8H157.7l-40.9-198.4l449.2,0L525.2,467.8z"/>
	</g>
</g>
</svg>
