<?xml version="1.0" encoding="utf-8"?>
<!-- Generator: Adobe Illustrator 22.0.0, SVG Export Plug-In . SVG Version: 6.00 Build 0)  -->
<svg version="1.1" id="Layer_1" xmlns="http://www.w3.org/2000/svg" xmlns:xlink="http://www.w3.org/1999/xlink" x="0px" y="0px"
	 viewBox="0 0 70.7 76.7" style="enable-background:new 0 0 70.7 76.7;" xml:space="preserve">
<style type="text/css">
	.st0{fill-rule:evenodd;clip-rule:evenodd;fill:#264556;stroke:#000000;stroke-width:1.25;stroke-miterlimit:10;}
</style>
<path class="st0" d="M32.9,11.6v20.1H10.1V11.6H32.9L32.9,11.6z M64.1,19.6c-0.6-2.4-2.3-4.5-4.6-5.5L53.1,0.8l-2.5,1.2l5.4,11.2
	c-1.2,0-2.3,0.2-3.3,0.6c-3.2,1.3-5.3,4.4-5.3,7.9c0,4.7,3.8,8.5,8.5,8.5c4.3,0,7.9-3.2,8.4-7.5c2.1,1.2,3,3.2,3,5.5v32.6
	c0,4.4-2.4,8-7,7.9c-4.4,0-7.3-3.5-7.3-7.9V40c0-3.3-2.3-4.9-5.2-4.9h-5.4v-33H0.6v74h41.7V37.9h5.4c1.4,0,2.4,0.6,2.3,2v21
	c0,6,4.2,10.6,10.2,10.7c6.1,0,9.8-4.8,9.8-10.8V28.4C70.1,24.3,68.1,21,64.1,19.6L64.1,19.6z M55.8,16.1c3.1,0,5.7,2.5,5.7,5.7
	c0,3.2-2.5,5.7-5.7,5.7c-3.2,0-5.7-2.5-5.7-5.7C50.2,18.6,52.7,16.1,55.8,16.1L55.8,16.1z M39.5,4.9H3.5v68.4h36.1V4.9L39.5,4.9z
	 M30,14.4H12.9v14.4H30V14.4z"/>
</svg>
