<?xml version="1.0" encoding="utf-8"?>
<!-- Generator: Adobe Illustrator 22.0.0, SVG Export Plug-In . SVG Version: 6.00 Build 0)  -->
<svg version="1.1" id="Layer_1" xmlns="http://www.w3.org/2000/svg" xmlns:xlink="http://www.w3.org/1999/xlink" x="0px" y="0px"
	 viewBox="0 0 60 55" style="enable-background:new 0 0 60 55;" xml:space="preserve">
<style type="text/css">
	.st0{fill-rule:evenodd;clip-rule:evenodd;fill:#0F4C8A;stroke:#0F4C8A;stroke-width:1.25;stroke-miterlimit:10;}
</style>
<path class="st0" d="M28.5,11.2v12.3H14.6V11.2H28.5L28.5,11.2z M47.5,16.1c-0.4-1.5-1.4-2.7-2.8-3.4l-3.9-8.1l-1.6,0.8l3.3,6.9
	c-0.7,0-1.4,0.1-2,0.4c-2,0.8-3.2,2.7-3.2,4.8c0,2.9,2.3,5.2,5.2,5.2c2.7,0,4.8-2,5.2-4.6c1.3,0.7,1.8,2,1.8,3.4v19.9
	c0,2.7-1.5,4.9-4.3,4.9c-2.7,0-4.5-2.1-4.5-4.8V28.5c0-2-1.4-3-3.2-3h-3.3V5.4H8.8v45.2h25.5V27.3h3.3c0.8,0,1.4,0.4,1.4,1.3v12.9
	c0,3.6,2.6,6.5,6.2,6.5c3.7,0,6-2.9,6-6.6V21.4C51.2,18.9,50,16.9,47.5,16.1L47.5,16.1z M42.5,13.9c1.9,0,3.5,1.5,3.5,3.5
	c0,1.9-1.5,3.5-3.5,3.5c-1.9,0-3.5-1.5-3.5-3.5C39.1,15.5,40.6,13.9,42.5,13.9L42.5,13.9z M32.5,7.1h-22v41.8h22V7.1L32.5,7.1z
	 M26.8,12.9H16.3v8.8h10.4V12.9z"/>
</svg>
