<?xml version="1.0" encoding="utf-8"?>
<!-- Generator: Adobe Illustrator 22.0.0, SVG Export Plug-In . SVG Version: 6.00 Build 0)  -->
<svg version="1.1" id="Layer_1" xmlns="http://www.w3.org/2000/svg" xmlns:xlink="http://www.w3.org/1999/xlink" x="0px" y="0px"
	 viewBox="267.6 397.3 60 47.3" style="enable-background:new 267.6 397.3 60 47.3;" xml:space="preserve">
<style type="text/css">
	.st0{fill:#15528F;}
</style>
<g>
	<g>
		<path class="st0" d="M276.1,402.3c-1.9,0-3.5,1.6-3.5,3.5c0,1.9,1.6,3.5,3.5,3.5c1.9,0,3.5-1.6,3.5-3.5
			C279.6,403.9,278,402.3,276.1,402.3z M276.1,406.8c-0.5,0-1-0.4-1-1s0.4-1,1-1c0.5,0,1,0.4,1,1S276.7,406.8,276.1,406.8z"/>
	</g>
</g>
<g>
	<g>
		<path class="st0" d="M325.3,412.9v-8.8c0-1.7-1.4-3.1-3.1-3.1l-39,0c-0.3-0.4-0.7-0.9-1-1.2c-1.6-1.6-3.8-2.5-6.1-2.4
			c-4.6,0.1-8.3,3.8-8.4,8.4c0,1.4,0.3,2.7,0.9,3.9c0,0,2,3.4,2,3.4v28.4c0,1.7,1.4,3.1,3.1,3.1l48.5,0c1.7,0,3.1-1.4,3.1-3.1v-16.4
			c0,0,1.4-2.4,1.4-2.4c0.6-1.2,0.9-2.5,0.9-3.9C327.6,416.6,326.8,414.5,325.3,412.9z M316.7,403.5l-6,6l-6-6L316.7,403.5z
			 M309.1,411.1l-10.5,10.5l-3.8-3.8c0,0,0,0,0,0c0,0,0,0,0,0l-2.9-2.9l10.5-10.5L309.1,411.1z M288.2,426l5.8-5.8l7.4,7.4l-5.8,5.8
			L288.2,426z M289.6,430.5l-6.5,6.5l-5.2-5.2l6.5-6.5L289.6,430.5z M283.7,409.7c0.6-1.2,0.9-2.5,0.9-3.9c0-0.8-0.1-1.6-0.3-2.3
			l15.8,0l-9.8,9.8l-3.5-3.5c-0.4-0.4-1.2-0.4-1.6,0c-0.4,0.4-0.4,1.2,0,1.6l7.2,7.2l-5.8,5.8l-4.7-4.7c-0.4-0.4-1.2-0.4-1.6,0
			c-0.4,0.4-0.4,1.2,0,1.6l2.5,2.5l-9.7,9.7v-16.2l0.9,1.5c0.5,0.8,1.3,1.2,2.1,1.2s1.7-0.5,2.1-1.2
			C278.3,418.7,283.7,409.7,283.7,409.7z M270.8,408.5c-0.4-0.8-0.6-1.8-0.6-2.7c0-3.2,2.7-5.9,5.9-6c1.6,0,3.1,0.6,4.3,1.7
			c0.4,0.4,0.7,0.8,1,1.3c0,0,0,0,0,0.1c0.5,0.9,0.7,1.9,0.7,2.9c0,0.9-0.2,1.9-0.6,2.7l-5.4,9L270.8,408.5z M273.7,442.1
			c-0.3,0-0.6-0.3-0.6-0.6v-4.8l3.2-3.2l8.6,8.6L273.7,442.1z M288.2,442.1l-3.5-3.5l6.5-6.5l9.9,9.9L288.2,442.1z M297.2,435
			l5.8-5.8l4.2,4.2l-5.8,5.8L297.2,435z M304.3,442.1l-1.3-1.3l5.8-5.8l7.1,7.1L304.3,442.1z M322.2,442.1l-3.1,0l-8.7-8.7l2.6-2.6
			c0.4-0.4,0.4-1.2,0-1.6c-0.4-0.4-1.2-0.4-1.6,0l-2.6,2.6l-5-5c0,0,0,0,0,0c0,0,0,0,0,0l-3.6-3.6l4.3-4.3l2.2,2.2
			c0.2,0.2,0.6,0.4,0.9,0.4c0.3,0,0.6-0.1,0.9-0.4c0.5-0.5,0.5-1.3,0-1.8l-2.2-2.2l13.7-13.7l2.3,0c0.3,0,0.6,0.3,0.6,0.6v7
			c-1.2-0.5-2.4-0.8-3.7-0.8c-4.6,0.1-8.3,3.8-8.4,8.4c0,1.4,0.3,2.7,0.9,3.9c0,0,5.4,9.1,5.4,9.1c0.5,0.8,1.3,1.2,2.1,1.2
			c0.9,0,1.7-0.5,2.1-1.2l1.5-2.5v12.2h0C322.8,441.8,322.5,442.1,322.2,442.1z M324.5,421.5l-1.6,2.6c0,0,0,0,0,0l-3.8,6.3l-5.4-9
			c-0.4-0.8-0.6-1.8-0.6-2.7c0-3.2,2.7-5.9,5.9-6c1.6,0,3.1,0.6,4.3,1.7c1.2,1.1,1.8,2.6,1.8,4.3
			C325.1,419.8,324.9,420.7,324.5,421.5z"/>
	</g>
</g>
<g>
	<g>
		<path class="st0" d="M319.2,415.3c-1.9,0-3.5,1.6-3.5,3.5c0,1.9,1.6,3.5,3.5,3.5c1.9,0,3.5-1.6,3.5-3.5
			C322.6,416.9,321.1,415.3,319.2,415.3z M319.2,419.8c-0.5,0-1-0.4-1-1c0-0.5,0.4-1,1-1c0.5,0,1,0.4,1,1
			C320.1,419.3,319.7,419.8,319.2,419.8z"/>
	</g>
</g>
</svg>
