<?xml version="1.0" encoding="utf-8"?>
<!-- Generator: Adobe Illustrator 22.0.0, SVG Export Plug-In . SVG Version: 6.00 Build 0)  -->
<svg version="1.1" id="Ñëîé_2" xmlns="http://www.w3.org/2000/svg" xmlns:xlink="http://www.w3.org/1999/xlink" x="0px" y="0px"
	 viewBox="0 0 64 40" style="enable-background:new 0 0 64 40;" xml:space="preserve">
<style type="text/css">
	.st0{fill:#FFFFFF;}
</style>
<g>
	<g>
		<g>
			<g>
				<path class="st0" d="M1.3,40l-1.1,0l0-0.8c-0.5-0.9-0.5-1.7-0.2-2.3c-0.3-0.7-0.2-1.4,0-1.9c-0.3-0.7-0.2-1.4,0-1.9
					c-0.3-0.7-0.2-1.4,0-1.9c-0.3-0.7-0.2-1.4,0-1.9c-0.3-0.7-0.2-1.4,0-1.9c-0.3-0.7-0.2-1.4,0-1.9c-0.3-0.7-0.2-1.4,0-1.9
					c-0.3-0.7-0.2-1.4,0-1.9c-0.3-0.7-0.2-1.4,0-1.9c-0.3-0.7-0.2-1.4,0-1.9c-0.3-0.7-0.2-1.4,0-1.9c-0.3-0.7-0.2-1.4,0-1.9
					c-0.3-0.7-0.2-1.4,0-1.9c-0.3-0.7-0.2-1.4,0-1.9c-0.3-0.7-0.2-1.4,0-1.9c-0.3-0.7-0.2-1.4,0-1.9c-0.3-0.9-0.2-1.7,0.2-2.2V3.7
					h11.4L12,4.2c0.7,1,0.7,2,0.4,2.7c0.3,0.7,0.2,1.4,0,1.9c0.3,0.7,0.2,1.4,0,1.9c0.3,0.7,0.2,1.4,0,1.9c0.3,0.7,0.2,1.4,0,1.9
					c0.3,0.7,0.2,1.4,0,1.9c0.3,0.7,0.2,1.4,0,1.9c0.3,0.7,0.2,1.4,0,1.9c0.3,0.7,0.2,1.4,0,1.9c0.3,0.7,0.2,1.4,0,1.9
					c0.3,0.7,0.2,1.4,0,1.9c0.3,0.7,0.2,1.4,0,1.9c0.3,0.7,0.2,1.4,0,1.9c0.3,0.7,0.2,1.4,0,1.9c0.3,0.7,0.2,1.4,0,1.9
					c0.3,0.7,0.2,1.4,0,1.9c0.3,0.7,0.2,1.4,0,1.9c0.5,1.3-0.1,2.3-0.6,2.7L11.5,40L1.3,40z M2.1,37.8h8.3c0-0.1-0.1-0.2-0.1-0.2
					l-0.5-0.7l0.6-0.6c0.1-0.1,0-0.4-0.1-0.5l-0.5-0.7l0.6-0.6c0.1-0.1,0-0.4-0.1-0.5l-0.5-0.7l0.6-0.6c0.1-0.1,0-0.4-0.1-0.5
					l-0.5-0.7l0.6-0.6c0.1-0.1,0-0.4-0.1-0.5l-0.5-0.7l0.6-0.6c0.1-0.1,0-0.4-0.1-0.5l-0.5-0.7l0.6-0.6c0.1-0.1,0-0.4-0.1-0.5
					l-0.5-0.7l0.6-0.6c0.1-0.1,0-0.4-0.1-0.5l-0.5-0.7l0.6-0.6c0.1-0.1,0-0.4-0.1-0.5l-0.5-0.7l0.6-0.6c0.1-0.1,0-0.4-0.1-0.5
					l-0.5-0.7l0.6-0.6c0.1-0.1,0-0.4-0.1-0.5L9.8,18l0.6-0.6c0.1-0.1,0-0.4-0.1-0.5l-0.5-0.7l0.6-0.6c0.1-0.1,0-0.4-0.1-0.5
					l-0.5-0.7l0.6-0.6c0.1-0.1,0-0.4-0.1-0.5l-0.5-0.7l0.6-0.6c0.1-0.1,0-0.4-0.1-0.5l-0.5-0.7l0.6-0.6c0.1-0.1,0-0.4-0.1-0.5
					L9.8,8.6l0.6-0.6c0.1-0.1,0-0.4-0.1-0.5L9.8,6.7l0.6-0.6c0,0,0-0.1,0-0.1H2.1c0,0.1,0.1,0.2,0.1,0.3l0.5,0.7L2.1,7.5
					C2,7.7,2.1,7.9,2.2,8.1l0.5,0.7L2.1,9.4C2,9.5,2.1,9.8,2.2,10l0.5,0.7l-0.6,0.6c-0.1,0.1,0,0.4,0.1,0.5l0.5,0.7l-0.6,0.6
					c-0.1,0.1,0,0.4,0.1,0.5l0.5,0.7l-0.6,0.6c-0.1,0.1,0,0.4,0.1,0.5l0.5,0.7L2.1,17c-0.1,0.1,0,0.4,0.1,0.5l0.5,0.7l-0.6,0.6
					c-0.1,0.1,0,0.4,0.1,0.5l0.5,0.7l-0.6,0.6c-0.1,0.1,0,0.4,0.1,0.5L2.7,22l-0.6,0.6c-0.1,0.1,0,0.4,0.1,0.5l0.5,0.7l-0.6,0.6
					c-0.1,0.1,0,0.4,0.1,0.5l0.5,0.7l-0.6,0.6c-0.1,0.1,0,0.4,0.1,0.5l0.5,0.7l-0.6,0.6c-0.1,0.1,0,0.4,0.1,0.5l0.5,0.7l-0.6,0.6
					c-0.1,0.1,0,0.4,0.1,0.5l0.5,0.7L2.1,32c-0.1,0.1,0,0.4,0.1,0.5l0.5,0.7l-0.6,0.6c-0.1,0.1,0,0.4,0.1,0.5l0.5,0.7l-0.6,0.6
					c-0.1,0.1,0,0.4,0.1,0.5l0.5,0.7l-0.6,0.6C2.1,37.7,2.1,37.7,2.1,37.8z"/>
			</g>
			<g>
				<path class="st0" d="M52.9,40l-1.1,0l0-0.8c-0.5-0.9-0.5-1.7-0.2-2.3c-0.3-0.7-0.2-1.4,0-1.9c-0.3-0.7-0.2-1.4,0-1.9
					c-0.3-0.7-0.2-1.4,0-1.9c-0.3-0.7-0.2-1.4,0-1.9c-0.3-0.7-0.2-1.4,0-1.9c-0.3-0.7-0.2-1.4,0-1.9c-0.3-0.7-0.2-1.4,0-1.9
					c-0.3-0.7-0.2-1.4,0-1.9c-0.3-0.7-0.2-1.4,0-1.9c-0.3-0.7-0.2-1.4,0-1.9c-0.3-0.7-0.2-1.4,0-1.9c-0.3-0.7-0.2-1.4,0-1.9
					c-0.3-0.7-0.2-1.4,0-1.9c-0.3-0.7-0.2-1.4,0-1.9c-0.3-0.7-0.2-1.4,0-1.9c-0.3-0.7-0.2-1.4,0-1.9c-0.3-0.9-0.2-1.7,0.2-2.2V3.7
					h11.4l0.3,0.5c0.7,1,0.7,2,0.4,2.7c0.3,0.7,0.2,1.4,0,1.9c0.3,0.7,0.2,1.4,0,1.9c0.3,0.7,0.2,1.4,0,1.9c0.3,0.7,0.2,1.4,0,1.9
					c0.3,0.7,0.2,1.4,0,1.9c0.3,0.7,0.2,1.4,0,1.9c0.3,0.7,0.2,1.4,0,1.9c0.3,0.7,0.2,1.4,0,1.9c0.3,0.7,0.2,1.4,0,1.9
					c0.3,0.7,0.2,1.4,0,1.9c0.3,0.7,0.2,1.4,0,1.9c0.3,0.7,0.2,1.4,0,1.9c0.3,0.7,0.2,1.4,0,1.9c0.3,0.7,0.2,1.4,0,1.9
					c0.3,0.7,0.2,1.4,0,1.9c0.3,0.7,0.2,1.4,0,1.9c0.5,1.3-0.1,2.3-0.6,2.7L63.1,40L52.9,40z M53.6,37.8h8.3c0-0.1-0.1-0.2-0.1-0.2
					l-0.5-0.7l0.6-0.6c0.1-0.1,0-0.4-0.1-0.5l-0.5-0.7l0.6-0.6c0.1-0.1,0-0.4-0.1-0.5l-0.5-0.7l0.6-0.6c0.1-0.1,0-0.4-0.1-0.5
					l-0.5-0.7l0.6-0.6c0.1-0.1,0-0.4-0.1-0.5l-0.5-0.7l0.6-0.6c0.1-0.1,0-0.4-0.1-0.5l-0.5-0.7l0.6-0.6c0.1-0.1,0-0.4-0.1-0.5
					l-0.5-0.7l0.6-0.6c0.1-0.1,0-0.4-0.1-0.5l-0.5-0.7l0.6-0.6c0.1-0.1,0-0.4-0.1-0.5l-0.5-0.7l0.6-0.6c0.1-0.1,0-0.4-0.1-0.5
					l-0.5-0.7l0.6-0.6c0.1-0.1,0-0.4-0.1-0.5L61.3,18l0.6-0.6c0.1-0.1,0-0.4-0.1-0.5l-0.5-0.7l0.6-0.6c0.1-0.1,0-0.4-0.1-0.5
					l-0.5-0.7l0.6-0.6c0.1-0.1,0-0.4-0.1-0.5l-0.5-0.7l0.6-0.6c0.1-0.1,0-0.4-0.1-0.5l-0.5-0.7l0.6-0.6c0.1-0.1,0-0.4-0.1-0.5
					l-0.5-0.7l0.6-0.6c0.1-0.1,0-0.4-0.1-0.5l-0.5-0.7l0.6-0.6c0,0,0-0.1,0-0.1h-8.3c0,0.1,0.1,0.2,0.1,0.3l0.5,0.7l-0.6,0.6
					c-0.1,0.1,0,0.4,0.1,0.5l0.5,0.7l-0.6,0.6c-0.1,0.1,0,0.4,0.1,0.5l0.5,0.7l-0.6,0.6c-0.1,0.1,0,0.4,0.1,0.5l0.5,0.7l-0.6,0.6
					c-0.1,0.1,0,0.4,0.1,0.5l0.5,0.7l-0.6,0.6c-0.1,0.1,0,0.4,0.1,0.5l0.5,0.7L53.7,17c-0.1,0.1,0,0.4,0.1,0.5l0.5,0.7l-0.6,0.6
					c-0.1,0.1,0,0.4,0.1,0.5l0.5,0.7l-0.6,0.6c-0.1,0.1,0,0.4,0.1,0.5l0.5,0.7l-0.6,0.6c-0.1,0.1,0,0.4,0.1,0.5l0.5,0.7l-0.6,0.6
					c-0.1,0.1,0,0.4,0.1,0.5l0.5,0.7l-0.6,0.6c-0.1,0.1,0,0.4,0.1,0.5l0.5,0.7l-0.6,0.6c-0.1,0.1,0,0.4,0.1,0.5l0.5,0.7l-0.6,0.6
					c-0.1,0.1,0,0.4,0.1,0.5l0.5,0.7L53.7,32c-0.1,0.1,0,0.4,0.1,0.5l0.5,0.7l-0.6,0.6c-0.1,0.1,0,0.4,0.1,0.5l0.5,0.7l-0.6,0.6
					c-0.1,0.1,0,0.4,0.1,0.5l0.5,0.7l-0.6,0.6C53.6,37.7,53.6,37.7,53.6,37.8z"/>
			</g>
			<rect x="5.2" y="2" class="st0" width="2.2" height="2.7"/>
			<rect x="56.7" y="2.1" class="st0" width="2.2" height="3"/>
		</g>
	</g>
	<g>
		<path class="st0" d="M30.6,20.4c-3,0-5.1,1.7-5.2,1.8l-3.7,2.5c-0.9,0.6-0.7,1.3-0.6,1.5c0.1,0.2,0.4,0.9,1.4,0.9h15.9
			c0.7,0,1.2-0.3,1.4-0.8c0.2-0.5,0.1-1.1-0.4-1.6C36.4,21.9,33.5,20.4,30.6,20.4z M25.4,25l1.2-0.8l0.3-0.2l0.1-0.1
			c0,0,1.5-1.3,3.7-1.3c1.8,0,3.7,0.8,5.7,2.4H25.4z"/>
		<path class="st0" d="M50.5,27.6c-1.3-3.5-6.2-4.1-7.9-4.2c-1.5-1.9-5.7-6.1-12.1-6.4c-5-0.2-9.9,3.7-13.2,6.3
			c-0.8,0.6-1.5,1.2-2.1,1.6c-3.8,2.7-0.5,9.2-0.3,9.5l0.3,0.6h3.9c0.5,2.2,2.5,3.9,4.8,3.9s4.3-1.7,4.8-3.9h7.5
			c0.5,2.2,2.5,3.9,4.8,3.9c2.4,0,4.3-1.7,4.8-3.9h4.3l0.2-0.8C50.5,34,51.4,30.2,50.5,27.6z M23.9,36.7c-1.5,0-2.8-1.2-2.8-2.8
			c0-1.5,1.2-2.8,2.8-2.8c1.5,0,2.8,1.2,2.8,2.8C26.7,35.4,25.5,36.7,23.9,36.7z M41.1,36.7c-1.5,0-2.8-1.2-2.8-2.8
			c0-1.5,1.2-2.8,2.8-2.8c1.5,0,2.8,1.2,2.8,2.8C43.9,35.4,42.7,36.7,41.1,36.7z M48.5,32.8H46c-0.5-2.2-2.5-3.9-4.8-3.9
			c-2.4,0-4.3,1.7-4.8,3.9h-7.5c-0.5-2.2-2.5-3.9-4.8-3.9s-4.3,1.7-4.8,3.9h-2.5c-0.7-1.7-1.7-4.9-0.1-6.1c0.6-0.4,1.3-1,2.2-1.7
			c3-2.4,7.6-6,11.7-5.9c5.9,0.2,9.7,4.6,10.7,5.9l0.3,0.4l0.5,0c1.5,0,5.6,0.6,6.4,2.8C48.9,29.6,48.7,31.6,48.5,32.8z"/>
	</g>
	<path class="st0" d="M60.6,0.7c0-0.4-0.3-0.7-0.7-0.7H4.3C3.9,0,3.5,0.3,3.5,0.7v0.7c0,0.4,0.3,0.7,0.7,0.7h55.6
		c0.4,0,0.7-0.3,0.7-0.7V0.7z"/>
</g>
</svg>
