<?xml version="1.0" encoding="utf-8"?>
<!-- Generator: Adobe Illustrator 22.0.0, SVG Export Plug-In . SVG Version: 6.00 Build 0)  -->
<svg version="1.1" id="Layer_1" xmlns="http://www.w3.org/2000/svg" xmlns:xlink="http://www.w3.org/1999/xlink" x="0px" y="0px"
	 viewBox="0 0 60 55" style="enable-background:new 0 0 60 55;" xml:space="preserve">
<style type="text/css">
	.st0{fill-rule:evenodd;clip-rule:evenodd;fill:#0F4C8A;stroke:#0F4C8A;stroke-width:1.25;stroke-miterlimit:10;}
</style>
<path class="st0" d="M32.1,9.5h-5.2V12h-1.9V9.5H21V12h-1.9V9.5H15V12h-1.9V9.5H9.1V12H7.2V9.5H2v39.3h30.2V9.5L32.1,9.5z
	 M47.3,38.4c-1.9,0-3.4,1.5-3.4,3.4c0,1.9,1.5,3.4,3.4,3.4c1.9,0,3.4-1.5,3.4-3.4C50.8,40,49.2,38.4,47.3,38.4L47.3,38.4z
	 M47.3,36.6c-2.6,0-4.8,1.8-5.2,4.4H34V18.6c1.5,0.4,2.8,1.3,3.7,2.5l6,7.2c0.9,1.1,2,1.4,3.3,1.4c0.5,0,0.9,0,1.4,0.1
	c3.1,0.3,5.4,1.6,6.9,3.4c1.7,2.1,2.3,5,2.2,7.7h-5C52.1,38.4,49.9,36.6,47.3,36.6L47.3,36.6z M52.6,42.8c-0.4,2.5-2.7,4.4-5.2,4.4
	c-2.6,0-4.8-1.8-5.2-4.4H34v7.8H0.1v-43h7.1v-3h1.9v3h4.1v-3H15v3h4.1v-3H21v3h4.1v-3h1.9v3H34v9.1c2.1,0.4,3.8,1.6,5.2,3.2l6,7.3
	c0.6,0.7,1.1,0.8,1.9,0.8c0.5,0,1,0,1.5,0.1c3.7,0.4,6.4,1.9,8.2,4.1c2.2,2.8,2.8,6.4,2.5,9.9l-0.1,0.8H52.6L52.6,42.8z M10,22.6h14
	H25v0.9v14v0.9h-0.9H10H9.1v-0.9v-14v-0.9H10L10,22.6z M22.1,24.5l-4.8,7.7L13.7,27L12.2,28l4.3,6.4l0.8,1.2l0.8-1.2l5.1-8v10.3H11
	V24.5H22.1z"/>
</svg>
