<?xml version="1.0" encoding="utf-8"?>
<!-- Generator: Adobe Illustrator 22.0.0, SVG Export Plug-In . SVG Version: 6.00 Build 0)  -->
<svg version="1.1" id="Layer_1" xmlns="http://www.w3.org/2000/svg" xmlns:xlink="http://www.w3.org/1999/xlink" x="0px" y="0px"
	 viewBox="0 0 67.5 64.8" style="enable-background:new 0 0 67.5 64.8;" xml:space="preserve">
<style type="text/css">
	.st0{fill:#333333;stroke:#333333;stroke-width:1.5;stroke-miterlimit:10;}
</style>
<g>
	<path class="st0" d="M25.7,8.9c2.8,0,5,2.2,5,5c0,0.6,0.5,1.1,1.1,1.1c0.6,0,1.1-0.5,1.1-1.1c0-2.8,2.2-5,5-5
		c0.6,0,1.1-0.5,1.1-1.1c0-0.6-0.5-1.1-1.1-1.1c-2.8,0-5-2.2-5-5c0-0.6-0.5-1.1-1.1-1.1c-0.6,0-1.1,0.5-1.1,1.1c0,2.8-2.2,5-5,5
		c-0.6,0-1.1,0.5-1.1,1.1C24.6,8.5,25.1,8.9,25.7,8.9z M31.7,5.5c0.6,0.9,1.4,1.8,2.3,2.3c-0.9,0.6-1.8,1.4-2.3,2.3
		c-0.6-0.9-1.4-1.8-2.3-2.3C30.3,7.3,31.1,6.5,31.7,5.5z"/>
	<path class="st0" d="M62.1,35.7h-6l-1.9-6.2c-1-3.1-4.4-5.6-7.6-5.6H21c-1.5,0-3,0.5-4.2,1.4c0.7-4.3,4.4-7.6,8.9-7.6
		c0.6,0,1.1-0.5,1.1-1.1s-0.5-1.1-1.1-1.1c-5,0-9-4.1-9-9c0-0.6-0.5-1.1-1.1-1.1c-0.6,0-1.1,0.5-1.1,1.1c0,5-4.1,9-9,9
		c-0.6,0-1.1,0.5-1.1,1.1s0.5,1.1,1.1,1.1c5,0,9,4.1,9,9c0,0.2,0.1,0.3,0.1,0.5c-0.5,0.7-1,1.5-1.2,2.3l-1.9,6.2h-6
		c-2.6,0-4.7,2.1-4.7,4.7c0,2.6,2.1,4.7,4.7,4.7h2.2C6.8,47.9,6,51.6,6,56.3v3.4c0,2.4,2,4.4,4.4,4.4h3.9c2.4,0,4.4-2,4.4-4.4v-0.5
		h30v0.5c0,2.4,2,4.4,4.4,4.4h3.9c2.4,0,4.4-2,4.4-4.4v-3.4c0-4.7-0.8-8.4-1.6-11.2h2.2c2.6,0,4.7-2.1,4.7-4.7
		C66.8,37.8,64.7,35.7,62.1,35.7z M10.2,16.7c2.3-1.1,4.2-3,5.4-5.4c1.1,2.3,3,4.2,5.4,5.4c-2.3,1.1-4.2,3-5.4,5.4
		C14.4,19.7,12.5,17.8,10.2,16.7z M5.4,43c-1.4,0-2.6-1.2-2.6-2.6c0-1.4,1.2-2.6,2.6-2.6h5.3l-0.4,1.3c-0.3,0.4-1.1,1.8-2,3.9H5.4z
		 M59.4,59.7c0,1.3-1,2.3-2.3,2.3h-3.9c-1.3,0-2.3-1-2.3-2.3v-1.6c0-0.6-0.5-1.1-1.1-1.1H17.7c-0.6,0-1.1,0.5-1.1,1.1v1.6
		c0,1.3-1,2.3-2.3,2.3h-3.9c-1.3,0-2.3-1-2.3-2.3v-3.4c0-10.5,4-16,4-16.1c0.1-0.1,0.1-0.2,0.2-0.3l3.1-9.7c0.7-2.2,3.3-4.1,5.6-4.1
		h25.6c2.3,0,4.9,1.9,5.6,4.1l3.1,9.7c0,0.1,0.1,0.2,0.2,0.3c0,0.1,4.1,5.6,4.1,16.1V59.7z M62.1,43h-3c-0.8-2.1-1.7-3.4-2-3.9
		l-0.4-1.3h5.3c1.4,0,2.6,1.2,2.6,2.6C64.6,41.8,63.5,43,62.1,43z"/>
	<path class="st0" d="M15.4,45.9c-3.1-0.1-4.5,0.8-5.2,1.6c-0.7,0.8-0.8,1.9-0.5,3c0.3,1.2,1.6,2.7,5.5,2.7h6.2
		c0.4,0,0.7-0.2,0.9-0.5c0.2-0.3,0.2-0.7,0.1-1C22.2,51.4,19.8,46.1,15.4,45.9z M15.2,51c-2,0-3.3-0.4-3.5-1.1
		c-0.2-0.7,0.1-1,0.1-1.1c0.2-0.3,0.9-0.8,2.9-0.8c0.2,0,0.4,0,0.6,0c1.9,0.1,3.4,1.8,4.3,3H15.2z"/>
	<path class="st0" d="M51.3,45.9c-4.4,0.2-6.8,5.5-6.9,5.8c-0.1,0.3-0.1,0.7,0.1,1c0.2,0.3,0.5,0.5,0.9,0.5h6.2c4,0,5.2-1.5,5.5-2.7
		c0.3-1.1,0.1-2.2-0.5-3C55.9,46.7,54.4,45.7,51.3,45.9z M54.9,48.8c0.1,0.1,0.3,0.4,0.1,1.1c-0.2,0.7-1.5,1.1-3.5,1.1h-4.4
		c0.9-1.3,2.4-3,4.3-3C53.9,47.9,54.7,48.5,54.9,48.8z"/>
	<path class="st0" d="M50.9,38.8c0.2-0.2,0.2-0.5,0.2-0.8l-1.4-6.3c-0.4-1.8-2-3.1-3.8-3.1H21.7c-1.8,0-3.4,1.3-3.8,3.1L16.5,38
		c-0.1,0.3,0,0.6,0.2,0.8c0.2,0.2,0.4,0.4,0.7,0.4l8.6,1.1c2.6,0.3,5.2,0.5,7.8,0.5s5.2-0.2,7.8-0.5c0,0,0,0,0,0l8.6-1.1
		C50.4,39.2,50.7,39.1,50.9,38.8z M41.2,38.3L41.2,38.3c-5,0.6-10,0.6-15,0l-7.5-1l1.1-5.1c0.2-0.8,0.9-1.4,1.7-1.4h24.2
		c0.8,0,1.6,0.6,1.7,1.4l1.1,5.1L41.2,38.3z"/>
</g>
</svg>
