<?xml version="1.0" encoding="utf-8"?>
<!-- Generator: Adobe Illustrator 22.0.0, SVG Export Plug-In . SVG Version: 6.00 Build 0)  -->
<svg version="1.1" id="Ñëîé_2" xmlns="http://www.w3.org/2000/svg" xmlns:xlink="http://www.w3.org/1999/xlink" x="0px" y="0px"
	 viewBox="0 0 71 44.2" style="enable-background:new 0 0 71 44.2;" xml:space="preserve">
<style type="text/css">
	.st0{fill:#333333;}
</style>
<g>
	<g>
		<g>
			<g>
				<path class="st0" d="M1.7,44.2l-1.2,0l0-0.9c-0.5-1-0.5-1.9-0.2-2.5c-0.3-0.8-0.2-1.5,0-2.1c-0.3-0.8-0.2-1.5,0-2.1
					c-0.3-0.8-0.2-1.5,0-2.1c-0.3-0.8-0.2-1.5,0-2.1c-0.3-0.8-0.2-1.5,0-2.1c-0.3-0.8-0.2-1.5,0-2.1c-0.3-0.8-0.2-1.5,0-2.1
					c-0.3-0.8-0.2-1.5,0-2.1c-0.3-0.8-0.2-1.5,0-2.1c-0.3-0.8-0.2-1.5,0-2.1c-0.3-0.8-0.2-1.5,0-2.1c-0.3-0.8-0.2-1.5,0-2.1
					c-0.3-0.8-0.2-1.5,0-2.1c-0.3-0.8-0.2-1.5,0-2.1c-0.3-0.8-0.2-1.5,0-2.1C-0.1,8.7,0,8,0.2,7.4C-0.2,6.5,0,5.6,0.4,5V4.1H13
					l0.4,0.5c0.8,1.1,0.8,2.2,0.5,2.9c0.3,0.8,0.2,1.5,0,2.1c0.3,0.8,0.2,1.5,0,2.1c0.3,0.8,0.2,1.5,0,2.1c0.3,0.8,0.2,1.5,0,2.1
					c0.3,0.8,0.2,1.5,0,2.1c0.3,0.8,0.2,1.5,0,2.1c0.3,0.8,0.2,1.5,0,2.1c0.3,0.8,0.2,1.5,0,2.1c0.3,0.8,0.2,1.5,0,2.1
					c0.3,0.8,0.2,1.5,0,2.1c0.3,0.8,0.2,1.5,0,2.1c0.3,0.8,0.2,1.5,0,2.1c0.3,0.8,0.2,1.5,0,2.1c0.3,0.8,0.2,1.5,0,2.1
					c0.3,0.8,0.2,1.5,0,2.1c0.3,0.8,0.2,1.5,0,2.1c0.6,1.4-0.1,2.6-0.7,3l-0.3,0.3L1.7,44.2z M2.4,41.7h9.1c0-0.1-0.1-0.2-0.1-0.3
					l-0.5-0.8l0.6-0.7c0.1-0.1,0-0.4-0.1-0.6l-0.5-0.8l0.6-0.7c0.1-0.1,0-0.4-0.1-0.6l-0.5-0.8l0.6-0.7c0.1-0.1,0-0.4-0.1-0.6
					l-0.5-0.8l0.6-0.7c0.1-0.1,0-0.4-0.1-0.6l-0.5-0.8l0.6-0.7c0.1-0.1,0-0.5-0.1-0.6l-0.5-0.8l0.6-0.7c0.1-0.2,0-0.5-0.1-0.6
					l-0.5-0.8l0.6-0.7c0.1-0.1,0-0.5-0.1-0.6l-0.5-0.8l0.6-0.7c0.1-0.1,0-0.5-0.1-0.6L10.9,24l0.6-0.7c0.1-0.1,0-0.5-0.1-0.6
					l-0.5-0.8l0.6-0.7c0.1-0.1,0-0.5-0.1-0.6l-0.5-0.8l0.6-0.7c0.1-0.1,0-0.4-0.1-0.6l-0.5-0.8l0.6-0.7c0.1-0.1,0-0.4-0.1-0.6
					l-0.5-0.8l0.6-0.7c0.1-0.1,0-0.4-0.1-0.6l-0.5-0.8l0.6-0.7c0.1-0.1,0-0.5-0.1-0.6l-0.5-0.8l0.6-0.7c0.1-0.1,0-0.4-0.1-0.6
					l-0.5-0.8l0.6-0.7c0.1-0.1,0-0.5-0.1-0.6l-0.5-0.8l0.6-0.7c0,0,0.1-0.1,0.1-0.1H2.5c0,0.1,0.1,0.2,0.1,0.3l0.5,0.8L2.5,8.3
					c-0.1,0.1,0,0.4,0.1,0.6l0.5,0.8l-0.6,0.7c-0.1,0.1,0,0.4,0.1,0.6l0.5,0.8l-0.6,0.7c-0.1,0.1,0,0.4,0.1,0.6l0.5,0.8l-0.6,0.7
					c-0.1,0.1,0,0.4,0.1,0.6l0.5,0.8l-0.6,0.7c-0.1,0.1,0,0.4,0.1,0.6L3.1,18l-0.6,0.7c-0.1,0.1,0,0.4,0.1,0.6l0.5,0.8l-0.6,0.7
					c-0.1,0.1,0,0.4,0.1,0.6l0.5,0.8l-0.6,0.7c-0.1,0.1,0,0.4,0.1,0.6l0.5,0.8L2.5,25c-0.1,0.1,0,0.4,0.1,0.6l0.5,0.8L2.5,27
					c-0.1,0.1,0,0.4,0.1,0.6l0.5,0.8l-0.6,0.7c-0.1,0.1,0,0.4,0.1,0.6l0.5,0.8l-0.6,0.7c-0.1,0.1,0,0.4,0.1,0.6l0.5,0.8l-0.6,0.7
					c-0.1,0.1,0,0.4,0.1,0.6l0.5,0.8l-0.6,0.7c-0.1,0.1,0,0.4,0.1,0.6l0.5,0.8l-0.6,0.7c-0.1,0.1,0,0.4,0.1,0.6l0.5,0.8l-0.6,0.7
					c-0.1,0.1,0,0.4,0.1,0.6l0.5,0.8l-0.6,0.7C2.5,41.6,2.4,41.7,2.4,41.7z"/>
			</g>
			<g>
				<path class="st0" d="M58.6,44.2l-1.2,0l0-0.9c-0.5-1-0.5-1.9-0.2-2.5c-0.3-0.8-0.2-1.5,0-2.1c-0.3-0.8-0.2-1.5,0-2.1
					c-0.3-0.8-0.2-1.5,0-2.1c-0.3-0.8-0.2-1.5,0-2.1c-0.3-0.8-0.2-1.5,0-2.1c-0.3-0.8-0.2-1.5,0-2.1c-0.3-0.8-0.2-1.5,0-2.1
					c-0.3-0.8-0.2-1.5,0-2.1c-0.3-0.8-0.2-1.5,0-2.1c-0.3-0.8-0.2-1.5,0-2.1c-0.3-0.8-0.2-1.5,0-2.1c-0.3-0.8-0.2-1.5,0-2.1
					c-0.3-0.8-0.2-1.5,0-2.1c-0.3-0.8-0.2-1.5,0-2.1c-0.3-0.8-0.2-1.5,0-2.1c-0.3-0.8-0.2-1.5,0-2.1c-0.4-1-0.2-1.9,0.2-2.5V4.1H70
					l0.4,0.5c0.8,1.1,0.8,2.2,0.5,2.9c0.3,0.8,0.2,1.5,0,2.1c0.3,0.8,0.2,1.5,0,2.1c0.3,0.8,0.2,1.5,0,2.1c0.3,0.8,0.2,1.5,0,2.1
					c0.3,0.8,0.2,1.5,0,2.1c0.3,0.8,0.2,1.5,0,2.1c0.3,0.8,0.2,1.5,0,2.1c0.3,0.8,0.2,1.5,0,2.1c0.3,0.8,0.2,1.5,0,2.1
					c0.3,0.8,0.2,1.5,0,2.1c0.3,0.8,0.2,1.5,0,2.1c0.3,0.8,0.2,1.5,0,2.1c0.3,0.8,0.2,1.5,0,2.1c0.3,0.8,0.2,1.5,0,2.1
					c0.3,0.8,0.2,1.5,0,2.1c0.3,0.8,0.2,1.5,0,2.1c0.6,1.4-0.1,2.6-0.7,3l-0.3,0.3L58.6,44.2z M59.4,41.7h9.1c0-0.1-0.1-0.2-0.1-0.3
					l-0.5-0.8l0.6-0.7c0.1-0.1,0-0.4-0.1-0.6l-0.5-0.8l0.6-0.7c0.1-0.1,0-0.4-0.1-0.6l-0.5-0.8l0.6-0.7c0.1-0.1,0-0.4-0.1-0.6
					l-0.5-0.8l0.6-0.7c0.1-0.1,0-0.4-0.1-0.6l-0.5-0.8l0.6-0.7c0.1-0.1,0-0.5-0.1-0.6l-0.5-0.8l0.6-0.7c0.1-0.2,0-0.5-0.1-0.6
					l-0.5-0.8l0.6-0.7c0.1-0.1,0-0.5-0.1-0.6l-0.5-0.8l0.6-0.7c0.1-0.1,0-0.5-0.1-0.6L67.9,24l0.6-0.7c0.1-0.1,0-0.5-0.1-0.6
					l-0.5-0.8l0.6-0.7c0.1-0.1,0-0.5-0.1-0.6l-0.5-0.8l0.6-0.7c0.1-0.1,0-0.4-0.1-0.6l-0.5-0.8l0.6-0.7c0.1-0.1,0-0.4-0.1-0.6
					l-0.5-0.8l0.6-0.7c0.1-0.1,0-0.4-0.1-0.6l-0.5-0.8l0.6-0.7c0.1-0.1,0-0.5-0.1-0.6l-0.5-0.8l0.6-0.7c0.1-0.1,0-0.4-0.1-0.6
					l-0.5-0.8l0.6-0.7c0.1-0.1,0-0.5-0.1-0.6l-0.5-0.8l0.6-0.7c0,0,0.1-0.1,0.1-0.1h-9.2c0,0.1,0.1,0.2,0.1,0.3l0.5,0.8l-0.6,0.7
					c-0.1,0.1,0,0.4,0.1,0.6l0.5,0.8l-0.6,0.7c-0.1,0.1,0,0.4,0.1,0.6l0.5,0.8l-0.6,0.7c-0.1,0.1,0,0.4,0.1,0.6l0.5,0.8l-0.6,0.7
					c-0.1,0.1,0,0.4,0.1,0.6l0.5,0.8l-0.6,0.7c-0.1,0.1,0,0.4,0.1,0.6l0.5,0.8l-0.6,0.7c-0.1,0.1,0,0.4,0.1,0.6l0.5,0.8l-0.6,0.7
					c-0.1,0.1,0,0.4,0.1,0.6l0.5,0.8l-0.6,0.7c-0.1,0.1,0,0.4,0.1,0.6l0.5,0.8L59.4,25c-0.1,0.1,0,0.4,0.1,0.6l0.5,0.8L59.4,27
					c-0.1,0.1,0,0.4,0.1,0.6l0.5,0.8l-0.6,0.7c-0.1,0.1,0,0.4,0.1,0.6l0.5,0.8l-0.6,0.7c-0.1,0.1,0,0.4,0.1,0.6l0.5,0.8l-0.6,0.7
					c-0.1,0.1,0,0.4,0.1,0.6l0.5,0.8l-0.6,0.7c-0.1,0.1,0,0.4,0.1,0.6l0.5,0.8l-0.6,0.7c-0.1,0.1,0,0.4,0.1,0.6l0.5,0.8l-0.6,0.7
					c-0.1,0.1,0,0.4,0.1,0.6l0.5,0.8l-0.6,0.7C59.4,41.6,59.4,41.7,59.4,41.7z"/>
			</g>
			<rect x="5.9" y="2.2" class="st0" width="2.4" height="3"/>
			<rect x="62.7" y="2.3" class="st0" width="2.4" height="3.3"/>
		</g>
	</g>
	<g>
		<path class="st0" d="M34,22.5c-3.3,0-5.6,1.9-5.7,2l-4.1,2.8c-0.9,0.6-0.8,1.5-0.7,1.7c0.1,0.2,0.4,1,1.5,1h17.5
			c0.7,0,1.3-0.3,1.5-0.9c0.2-0.6,0.1-1.2-0.4-1.7C40.4,24.2,37.2,22.5,34,22.5z M28.2,27.6l1.3-0.9l0.3-0.2l0.1-0.1
			c0,0,1.7-1.4,4.1-1.4c2,0,4.1,0.9,6.3,2.6H28.2z"/>
		<path class="st0" d="M55.9,30.5c-1.4-3.9-6.9-4.5-8.7-4.7c-1.7-2-6.3-6.8-13.3-7.1c-5.5-0.2-11,4.1-14.6,7
			c-0.9,0.7-1.6,1.3-2.3,1.7c-4.2,2.9-0.5,10.2-0.4,10.5l0.3,0.7h4.3c0.6,2.4,2.7,4.3,5.3,4.3s4.8-1.8,5.3-4.3h8.3
			c0.6,2.4,2.7,4.3,5.3,4.3c2.6,0,4.8-1.8,5.3-4.3h4.8l0.2-0.9C56,37.5,56.9,33.3,55.9,30.5z M26.6,40.5c-1.7,0-3-1.4-3-3
			c0-1.7,1.4-3,3-3s3,1.4,3,3C29.7,39.1,28.3,40.5,26.6,40.5z M45.6,40.5c-1.7,0-3-1.4-3-3c0-1.7,1.4-3,3-3c1.7,0,3,1.4,3,3
			C48.6,39.1,47.3,40.5,45.6,40.5z M53.7,36.2h-2.8c-0.6-2.4-2.7-4.3-5.3-4.3c-2.6,0-4.8,1.8-5.3,4.3H32c-0.6-2.4-2.7-4.3-5.3-4.3
			s-4.8,1.8-5.3,4.3h-2.8c-0.8-1.9-1.9-5.5-0.1-6.7c0.7-0.5,1.5-1.1,2.4-1.8c3.3-2.7,8.4-6.7,13-6.5c6.5,0.3,10.7,5.1,11.9,6.6
			l0.4,0.5l0.6,0c1.6,0,6.1,0.6,7.1,3.1C54.1,32.7,54,34.9,53.7,36.2z"/>
	</g>
	<path class="st0" d="M67.1,0.8c0-0.4-0.4-0.8-0.8-0.8H4.9C4.5,0,4.1,0.4,4.1,0.8v0.8c0,0.4,0.4,0.8,0.8,0.8h61.4
		c0.4,0,0.8-0.4,0.8-0.8V0.8z"/>
</g>
</svg>
