<svg xmlns="http://www.w3.org/2000/svg" viewBox="0 0 42.08 66.79"><defs><style>.cls-1{fill:#333;}</style></defs><title>Asset 5</title><g id="Layer_2" data-name="Layer 2"><g id="Layer_1-2" data-name="Layer 1"><path class="cls-1" d="M0,29.11q2.7-1.75,5.39-3.52a11.77,11.77,0,0,1,1.5-1c2.55-1.09,3.16-3.09,3.24-5.7.15-5.43.61-10.85.95-16.28A2.46,2.46,0,0,1,13.75,0Q21,0,28.27,0A2.49,2.49,0,0,1,31,2.61c.41,6,.83,12,1.16,18.07a3.2,3.2,0,0,0,1.59,2.92c2.53,1.6,5,3.37,7.45,5a1.72,1.72,0,0,1,.91,1.64c-.06,2.16,0,4.32,0,6.48a2.57,2.57,0,0,1-2.84,2.83q-18.24,0-36.48,0A3.23,3.23,0,0,1,0,38Zm38.82,7.22c0-1.57.07-3,0-4.43A2.29,2.29,0,0,0,38,30.37c-2.67-1.9-5.41-3.7-8.09-5.58a1.91,1.91,0,0,1-.78-1.17q-.66-9.69-1.21-19.38c-.05-.84-.32-1.08-1.13-1.07-3.8,0-7.6.05-11.4,0-.93,0-1.2.26-1.26,1.2-.36,6.26-.82,12.51-1.2,18.77A2.14,2.14,0,0,1,11.82,25q-4,2.65-7.94,5.39c-.3.21-.73.54-.74.83-.07,1.7,0,3.4,0,5.13Z"/><path class="cls-1" d="M21.6,66.79c-.18-.35-.52-.69-.51-1,.12-4.15-.77-8.17-1.39-12.24-.3-2-.21-4-.32-6.19L17.6,49.41c-.87,1-1.37,1.1-2.3.33s-1.05-1.26-.2-2.3c1.36-1.67,2.72-3.34,4.11-5s2.86-1.71,4.22.08,2.82,3.78,4.28,5.73l4.73-5.74c1.49-1.82,2.94-1.79,4.37.12,1.25,1.66,2.5,3.32,3.73,5,.73,1,.65,1.52-.28,2.2A1.37,1.37,0,0,1,38,49.52c-.48-.69-1-1.33-1.53-2a4.5,4.5,0,0,0-.46-.19,32.35,32.35,0,0,0,0,3.83c.34,2.69.89,5.35,1.22,8a44,44,0,0,1,.33,5.5A7.41,7.41,0,0,1,37,66.79H34.8a19,19,0,0,1-.39-1.94,73,73,0,0,0-.63-7.27A39,39,0,0,1,32.91,48a4.32,4.32,0,0,0-.13-.67L30.9,49.53c-.78.9-1.33.95-2.22.19-.3-.26-.58-.53-.87-.79-1.55,1.72-2.2,1.69-3.53-.09l-1.23-1.6a8.35,8.35,0,0,0-.18,1.39c.15,2.1.29,4.2.51,6.3.33,3.09.72,6.18,1.07,9.26a3,3,0,0,1-.93,2.6Z"/><path class="cls-1" d="M7.92,66.79a4.19,4.19,0,0,1-.38-1.22c.17-4-.73-7.94-1.31-11.89a44,44,0,0,1-.05-6.19l-.37-.12c-.62.74-1.25,1.48-1.86,2.22a1.31,1.31,0,0,1-2.15.15C1,49.08.63,48.45,1.41,47.53c1.49-1.78,2.93-3.6,4.43-5.37a2.24,2.24,0,0,1,3.77.09C11,44.08,12.4,46,13.77,47.82c.6.82.37,1.52-.67,2.29a1.18,1.18,0,0,1-1.85-.32l-1.9-2.46a24.65,24.65,0,0,0,.27,7.76c.48,3.31.78,6.64,1.06,10,.05.55-.39,1.14-.6,1.72Z"/></g></g></svg>