<svg xmlns="http://www.w3.org/2000/svg" viewBox="0 0 42.43 70.56"><defs><style>.cls-1{fill:#333;}</style></defs><title>Asset 7</title><g id="Layer_2" data-name="Layer 2"><g id="Layer_1-2" data-name="Layer 1"><path class="cls-1" d="M34.57,70.56H7.93a7.19,7.19,0,0,0-.79-.24A8.56,8.56,0,0,1,0,62Q0,39.38,0,16.76a6.77,6.77,0,0,1,4.47-6.5l.91-.41a6.67,6.67,0,0,0-1.8-.2A1.8,1.8,0,0,1,1.66,7.82c-.06-2,0-4.08,0-6.12A1.59,1.59,0,0,1,3.43,0H15.07a1.57,1.57,0,0,1,1.78,1.55q.11,3.3,0,6.58a1.57,1.57,0,0,1-1.6,1.5c-.34,0-.69,0-1,.07a3.46,3.46,0,0,0,1,.38c3.43.9,7,1.55,10.28,2.74,8.05,2.88,13.34,8.5,15.3,16.91A53.63,53.63,0,0,1,42.34,40c.21,6.79,0,13.59,0,20.39,0,.68,0,1.36,0,2a8.67,8.67,0,0,1-6.46,7.76C35.39,70.31,35,70.44,34.57,70.56ZM3.82,39.44V61.16c0,3.56,2,5.59,5.56,5.59H33c3.56,0,5.56-2,5.57-5.57,0-5.91.18-11.83,0-17.75a73.44,73.44,0,0,0-1-10.47c-1.44-8.52-6.33-14.16-14.56-17A41.47,41.47,0,0,0,7.7,13.58c-2.63.12-3.88,1.26-3.88,3.91ZM13,3.9H5.53v2H13Z"/><path class="cls-1" d="M21.3,65H10c-1.71,0-2.32-.58-2.32-2.29q0-7.86,0-15.72c0-1.65.67-2.3,2.37-2.3q11.15,0,22.31,0c1.77,0,2.58.81,2.59,2.57q0,7.62,0,15.24c0,1.94-.6,2.51-2.5,2.51ZM31,61.3V48.62H11.56V61.3Z"/><path class="cls-1" d="M36.36,38.28a26.72,26.72,0,0,1-.28,3.58A3.12,3.12,0,0,1,35,43.77a2,2,0,0,1-2.39-.54,63,63,0,0,1-9.45-10,39.73,39.73,0,0,1-6.86-14c-.53-2.12.43-3.17,2.58-2.83,9.29,1.47,17,10.09,17.38,19.47,0,.8,0,1.6,0,2.4ZM20.75,20.92C22.15,26,29.56,36.57,32.5,37.79,32.69,29.75,28.51,24,20.75,20.92Z"/></g></g></svg>