<svg xmlns="http://www.w3.org/2000/svg" viewBox="0 0 59.26 69.67"><defs><style>.cls-1{fill:#333;}</style></defs><title>Asset 6</title><g id="Layer_2" data-name="Layer 2"><g id="Layer_1-2" data-name="Layer 1"><path class="cls-1" d="M0,44.47C3.92,43,7.83,41.52,11.76,40.1c1.65-.6,3.35-1.08,5-1.63a4.67,4.67,0,0,0,3.43-4.56,15.63,15.63,0,0,0-1.26-7.47,31.75,31.75,0,0,1-3.16-13.78c.1-6.31,3.69-10.8,9.81-12.2a17,17,0,0,1,9.46.45c5.88,2,8.92,7.21,8.29,13.81a37.88,37.88,0,0,1-3.43,12.64,12.26,12.26,0,0,0-.9,7,4.81,4.81,0,0,0,3.5,4.13c4.57,1.55,9.13,3.15,13.68,4.76,1,.35,1.88.81,3.07,1.33l-6.19,7.86,3.58,6.15h-6.9c-2.14,0-2.26.16-1.74,2.47h8.23C55,66,51.87,69,47.72,69.46a4.42,4.42,0,0,0-.68.21h-1.2a2.79,2.79,0,0,0-.55-.2A10.25,10.25,0,0,1,38,65a1.8,1.8,0,0,0-1.26-.58c-4.78,0-9.57,0-14.36,0a1.55,1.55,0,0,0-1.51.86A8.82,8.82,0,0,1,16.08,69c-.86.3-1.76.47-2.64.7h-1.2a2,2,0,0,0-.44-.18c-5-.59-7.44-3.8-8.86-8.4h8.42V58.61H2.51L6,52.46c-1.35-1.71-2.82-3.54-4.27-5.39C1.17,46.3.59,45.5,0,44.71Zm53.87,1.7c-.64-.27-.95-.42-1.29-.54-2.82-1-5.66-1.93-8.46-3a1.51,1.51,0,0,0-2.14.64A15.51,15.51,0,0,1,16.84,43a1.12,1.12,0,0,0-1.57-.49c-2.93,1.05-5.88,2.06-8.82,3.09-.35.12-.68.31-1.24.56C6.48,47.53,7.63,48.74,8.73,50a1.44,1.44,0,0,0,1.66.47A9.71,9.71,0,0,1,21,54.64a1.76,1.76,0,0,0,1.21.68q7.32.06,14.64,0A1.48,1.48,0,0,0,38,54.79c2.68-4,6.41-5.27,11-4.3a1.18,1.18,0,0,0,.95-.17C51.22,49,52.46,47.68,53.87,46.17ZM31.25,18.27l-6.94-3.6c-1.07,2.7-2.12,5.33-3.13,8a1.57,1.57,0,0,0,.07,1,13.52,13.52,0,0,0,4.05,5.7c2.76,2.23,5.65,2.26,8.4,0,3.14-2.55,4.59-6,5.46-9.86a1,1,0,0,0-.35-.85c-2.16-1.21-4.34-2.35-6.6-3.56ZM19.74,40.8c4.54,6.77,15.85,6.76,19.38.4a23.32,23.32,0,0,1-2.81-3.91,23.37,23.37,0,0,1-1.11-4.66,10.13,10.13,0,0,1-11.6-.19C23.63,36,22.74,38.87,19.74,40.8Zm20-25.69c1.13-4.47-.67-8.73-4.48-10.49a13.34,13.34,0,0,0-7.84-1c-6.28,1-9.65,5.93-7.72,13.49l2.87-7.26,6.6,3.4.95-3.14Zm-31,49.44a6.24,6.24,0,0,0,10-2.64c.2-.61.38-1,1.11-.95,6.47,0,13,0,19.43,0a1.47,1.47,0,0,1,1,.8,6.84,6.84,0,0,0,2.9,3.54c2,1.23,5.86,1,6.92-.8H44.35c0-3,0-5.9,0-8.77,0-.23.54-.62.84-.63,1.57-.07,3.15,0,4.73,0a1.49,1.49,0,0,0-.65-.78,6.37,6.37,0,0,0-9,3.61c-.13.35-.56.86-.85.86-6.79.05-13.59,0-20.43,0a6.53,6.53,0,0,0-4-4.78c-2.26-.87-4.81-.46-6,1.08h5.68c0,3,0,5.87,0,8.74,0,.23-.54.62-.84.64C12.23,64.58,10.64,64.55,8.73,64.55Z"/></g></g></svg>