<?xml version="1.0" encoding="utf-8"?>
<!-- Generator: Adobe Illustrator 22.0.0, SVG Export Plug-In . SVG Version: 6.00 Build 0)  -->
<svg version="1.1" id="Capa_1" xmlns="http://www.w3.org/2000/svg" xmlns:xlink="http://www.w3.org/1999/xlink" x="0px" y="0px"
	 viewBox="237.6 368.8 120 104.3" style="enable-background:new 237.6 368.8 120 104.3;" xml:space="preserve">
<style type="text/css">
	.st0{fill:#00AEEF;}
</style>
<g>
	<g>
		<path class="st0" d="M356.1,419c-1-2.4-2.5-4.6-4.3-6.4c-1.9-1.9-4-3.3-6.4-4.3c-2.5-1.1-5.1-1.6-7.8-1.6h0
			c-2.4,0-4.8,0.4-7.1,1.3c-1.8,0.7-3.5,1.6-5,2.7l-71.3-41.2c-1.2-0.7-2.6-0.9-4-0.5c-1.4,0.4-2.5,1.2-3.2,2.5l-2.6,4.6
			c-0.7,1.2-0.9,2.6-0.5,4c0.4,1.4,1.2,2.5,2.5,3.2l87.2,50.4c0.9,0.5,1.9,0.2,2.4-0.6c0.5-0.8,0.2-1.9-0.6-2.4l0,0l-10.9-6.3
			c4.2-1.1,9.8-2.6,12-3.2l3.3,1.9c1.4,0.8,2.2,2.2,2.2,3.8c0,1.5-0.7,2.8-1.8,3.6c-0.8,0.6-1,1.7-0.4,2.5c0.6,0.8,1.6,1,2.4,0.4
			c0,0,0,0,0,0c2.1-1.5,3.3-3.9,3.3-6.4c0-2.8-1.5-5.4-4-6.9l-12.6-7.3c2.6-1.6,5.6-2.5,8.7-2.5c4.4,0,8.6,1.7,11.8,4.9
			c3.1,3.1,4.9,7.3,4.9,11.8v42.8h-33.3V430c0-1-0.8-1.8-1.8-1.8c-1,0-1.8,0.8-1.8,1.8v41.3c0,0.5,0.2,0.9,0.5,1.2
			c0.3,0.3,0.8,0.5,1.2,0.5h36.8c0.5,0,0.9-0.2,1.2-0.5c0.3-0.3,0.5-0.8,0.5-1.2v-44.5C357.6,424.1,357.1,421.4,356.1,419z
			 M248,380.2c-0.4-0.2-0.7-0.6-0.8-1.1c-0.1-0.5-0.1-0.9,0.2-1.3l2.6-4.6c0.2-0.4,0.6-0.7,1.1-0.8c0.5-0.1,0.9-0.1,1.3,0.2
			l11.1,6.4l-12,3.2L248,380.2z M255.8,384.7l12-3.2l9.4,5.4l-12,3.2L255.8,384.7z M269.5,392.6l12-3.2l9.4,5.4l-12,3.2L269.5,392.6
			z M283.2,400.5l12-3.2l9.4,5.4l-12,3.2L283.2,400.5z M296.9,408.4l12-3.2l9.4,5.4l-12,3.2L296.9,408.4z M332,418.6l-12,3.2
			l-9.4-5.4l12-3.2l2,1.2c0,0,0,0,0,0L332,418.6z"/>
	</g>
</g>
<g>
	<g>
		<path class="st0" d="M252.8,425h-6.3c-4.8,0-8.8,3.9-8.8,8.8v37.5c0,1,0.8,1.8,1.8,1.8h20.4c1,0,1.8-0.8,1.8-1.8v-37.5
			C261.5,429,257.6,425,252.8,425z M258,469.6h-16.9v-35.7c0-2.9,2.4-5.3,5.3-5.3h6.3c2.9,0,5.3,2.4,5.3,5.3V469.6z"/>
	</g>
</g>
<g>
	<g>
		<path class="st0" d="M252.8,432.3h-6.3c-1,0-1.8,0.8-1.8,1.8v6.3c0,1,0.8,1.8,1.8,1.8s1.8-0.8,1.8-1.8v-4.6h2.8v4.6
			c0,1,0.8,1.8,1.8,1.8s1.8-0.8,1.8-1.8v-6.3C254.5,433.1,253.7,432.3,252.8,432.3z"/>
	</g>
</g>
<g>
	<g>
		<path class="st0" d="M337.5,437c-4.2,0-7.6,3.4-7.6,7.6c0,4.2,3.4,7.6,7.6,7.6s7.6-3.4,7.6-7.6C345.1,440.4,341.7,437,337.5,437z
			 M337.5,448.7c-2.3,0-4.1-1.8-4.1-4.1c0-2.3,1.8-4.1,4.1-4.1s4.1,1.8,4.1,4.1C341.6,446.9,339.7,448.7,337.5,448.7z"/>
	</g>
</g>
</svg>
